<?xml version="1.0" standalone="no"?>
<!DOCTYPE svg PUBLIC "-//W3C//DTD SVG 20010904//EN"
 "http://www.w3.org/TR/2001/REC-SVG-20010904/DTD/svg10.dtd">
<svg version="1.0" xmlns="http://www.w3.org/2000/svg"
 width="334.000000pt" height="334.000000pt" viewBox="0 0 334.000000 334.000000"
 preserveAspectRatio="xMidYMid meet">

<g transform="translate(0.000000,334.000000) scale(0.100000,-0.100000)"
fill="#000000" stroke="none">
<path d="M355 3315 c-5 -2 -29 -9 -52 -15 -110 -28 -225 -145 -263 -268 -20
-63 -20 -96 -20 -1362 0 -1273 0 -1299 20 -1363 38 -123 144 -229 267 -267 64
-20 90 -20 1363 -20 1273 0 1299 0 1363 20 123 38 229 144 267 267 20 64 20
90 20 1363 0 1273 0 1299 -20 1363 -38 123 -144 229 -267 267 -64 20 -89 20
-1367 19 -715 0 -1305 -2 -1311 -4z m1205 -1377 c0 -1057 2 -1016 -67 -1155
-80 -164 -249 -280 -463 -319 -127 -23 -320 -17 -537 17 l-73 12 0 160 0 159
23 -6 c216 -61 207 -60 362 -60 172 -1 236 13 307 67 53 41 94 119 108 207 6
40 10 364 10 833 l0 767 -255 0 -255 0 0 135 0 135 420 0 420 0 0 -952z m995
-177 c45 -11 106 -29 138 -41 l57 -21 0 -120 c0 -66 -4 -119 -9 -119 -5 0 -36
16 -68 35 -32 18 -98 47 -148 64 -259 86 -485 21 -485 -138 0 -96 61 -142 235
-180 55 -12 141 -31 190 -42 113 -24 181 -56 240 -110 70 -65 88 -107 93 -219
5 -126 -17 -188 -97 -269 -108 -111 -261 -158 -481 -148 -138 7 -210 21 -330
68 l-80 30 0 125 c0 71 4 124 9 124 6 0 38 -18 73 -39 139 -87 287 -127 440
-119 121 7 193 42 227 111 19 38 22 56 17 92 -14 90 -71 125 -271 165 -302 59
-407 114 -467 245 -32 71 -33 209 -1 278 59 128 186 216 358 247 75 14 269 3
360 -19z"/>
</g>
</svg>
