<?xml version="1.0" standalone="no"?>
<!DOCTYPE svg PUBLIC "-//W3C//DTD SVG 20010904//EN"
 "http://www.w3.org/TR/2001/REC-SVG-20010904/DTD/svg10.dtd">
<svg version="1.0" xmlns="http://www.w3.org/2000/svg"
 width="332.000000pt" height="332.000000pt" viewBox="0 0 332.000000 332.000000"
 preserveAspectRatio="xMidYMid meet">

<g transform="translate(0.000000,332.000000) scale(0.100000,-0.100000)"
fill="#000000" stroke="none">
<path d="M710 2750 l0 -130 258 -2 257 -3 3 -670 c3 -688 -5 -919 -33 -1014
-12 -40 -30 -67 -68 -105 -74 -73 -124 -88 -307 -93 -136 -4 -152 -2 -260 26
-63 16 -123 33 -133 36 -16 7 -17 -3 -15 -151 l3 -159 40 -7 c125 -22 349 -40
440 -34 344 20 580 197 640 481 12 59 15 220 15 1013 l0 942 -420 0 -420 0 0
-130z"/>
<path d="M2212 1769 c-182 -23 -318 -111 -378 -242 -58 -129 -27 -300 70 -383
76 -65 139 -87 421 -148 198 -43 250 -84 242 -194 -9 -119 -100 -172 -294
-172 -136 0 -283 46 -414 130 -25 17 -49 30 -52 30 -4 0 -7 -54 -7 -120 l0
-120 38 -19 c57 -29 198 -69 287 -82 96 -13 250 -6 337 16 142 37 264 136 307
250 32 83 27 207 -12 281 -56 109 -151 160 -390 209 -202 42 -266 65 -306 111
-27 30 -31 42 -31 91 0 70 26 114 83 142 71 34 132 44 225 38 107 -7 202 -35
311 -93 46 -24 85 -44 87 -44 2 0 4 52 4 116 l0 115 -42 19 c-65 28 -183 58
-278 70 -94 11 -117 11 -208 -1z"/>
</g>
</svg>
